<svg width="67" height="49" viewBox="0 0 67 49" fill="none" xmlns="http://www.w3.org/2000/svg">
<g id="chip" filter="url(#filter0_i_107_817)">
<g id="Rectangle">
<g filter="url(#filter1_i_107_817)">
<rect x="1" width="66" height="49" rx="8.48489" fill="url(#paint0_linear_107_817)"/>
</g>
<rect x="1.2622" y="0.262203" width="65.4756" height="48.4756" rx="8.22269" stroke="url(#paint1_linear_107_817)" stroke-width="0.524406"/>
</g>
<path id="Union" fill-rule="evenodd" clip-rule="evenodd" d="M38.6846 8.03189H53.7329C56.1732 8.03189 58.1515 10.0102 58.1515 12.4505C58.1515 14.8909 56.1732 16.8692 53.7328 16.8692H38.6846C36.2442 16.8692 34.2659 14.8909 34.2659 12.4505C34.2659 10.0102 36.2442 8.03189 38.6846 8.03189ZM33.4174 12.4505C33.4174 9.54158 35.7756 7.1834 38.6846 7.1834H53.7329C56.6418 7.1834 59 9.54158 59 12.4505C59 15.3595 56.6418 17.7177 53.7328 17.7177H38.6846C35.7756 17.7177 33.4174 15.3595 33.4174 12.4505ZM11.0554 8.03196H26.1037C28.5441 8.03196 30.5224 10.0103 30.5224 12.4506C30.5224 14.891 28.5441 16.8693 26.1037 16.8693H11.0554C8.61506 16.8693 6.63677 14.891 6.63677 12.4506C6.63677 10.0103 8.61507 8.03196 11.0554 8.03196ZM5.78828 12.4506C5.78828 9.54165 8.14646 7.18348 11.0554 7.18348H26.1037C29.0127 7.18348 31.3708 9.54165 31.3708 12.4506C31.3708 15.3596 29.0127 17.7177 26.1037 17.7177H11.0554C8.14645 17.7177 5.78828 15.3596 5.78828 12.4506ZM26.1036 20.6731H11.0553C8.61499 20.6731 6.6367 22.6514 6.6367 25.0917C6.6367 27.5321 8.61499 29.5104 11.0553 29.5104H26.1036C28.544 29.5104 30.5223 27.5321 30.5223 25.0917C30.5223 22.6514 28.544 20.6731 26.1036 20.6731ZM11.0553 19.8246C8.14638 19.8246 5.78821 22.1828 5.78821 25.0917C5.78821 28.0007 8.14638 30.3589 11.0553 30.3589H26.1036C29.0126 30.3589 31.3708 28.0007 31.3708 25.0917C31.3708 22.1828 29.0126 19.8246 26.1036 19.8246H11.0553ZM38.6846 20.6731H53.7329C56.1732 20.6731 58.1515 22.6514 58.1515 25.0917C58.1515 27.5321 56.1732 29.5104 53.7328 29.5104H38.6846C36.2442 29.5104 34.2659 27.5321 34.2659 25.0917C34.2659 22.6514 36.2442 20.6731 38.6846 20.6731ZM33.4174 25.0917C33.4174 22.1828 35.7756 19.8246 38.6846 19.8246H53.7329C56.6418 19.8246 59 22.1828 59 25.0917C59 28.0007 56.6418 30.3589 53.7328 30.3589H38.6846C35.7756 30.3589 33.4174 28.0007 33.4174 25.0917ZM26.1036 33.3142H11.0553C8.61499 33.3142 6.6367 35.2925 6.6367 37.7328C6.6367 40.1732 8.61499 42.1515 11.0553 42.1515H26.1036C28.544 42.1515 30.5223 40.1732 30.5223 37.7328C30.5223 35.2925 28.544 33.3142 26.1036 33.3142ZM11.0553 32.4657C8.14638 32.4657 5.78821 34.8239 5.78821 37.7328C5.78821 40.6418 8.14638 43 11.0553 43H26.1036C29.0126 43 31.3708 40.6418 31.3708 37.7328C31.3708 34.8239 29.0126 32.4657 26.1036 32.4657H11.0553ZM38.6846 33.3142H53.7329C56.1732 33.3142 58.1515 35.2925 58.1515 37.7328C58.1515 40.1732 56.1732 42.1515 53.7328 42.1515H38.6846C36.2442 42.1515 34.2659 40.1732 34.2659 37.7328C34.2659 35.2925 36.2442 33.3142 38.6846 33.3142ZM33.4174 37.7328C33.4174 34.8239 35.7756 32.4657 38.6846 32.4657H53.7329C56.6418 32.4657 59 34.8239 59 37.7328C59 40.6418 56.6418 43 53.7328 43H38.6846C35.7756 43 33.4174 40.6418 33.4174 37.7328Z" fill="url(#paint2_linear_107_817)"/>
</g>
<defs>
<filter id="filter0_i_107_817" x="-0.67559" y="0" width="67.6756" height="51.223" filterUnits="userSpaceOnUse" color-interpolation-filters="sRGB">
<feFlood flood-opacity="0" result="BackgroundImageFix"/>
<feBlend mode="normal" in="SourceGraphic" in2="BackgroundImageFix" result="shape"/>
<feColorMatrix in="SourceAlpha" type="matrix" values="0 0 0 0 0 0 0 0 0 0 0 0 0 0 0 0 0 0 127 0" result="hardAlpha"/>
<feOffset dx="-1.37286" dy="2.22304"/>
<feGaussianBlur stdDeviation="2.91045"/>
<feComposite in2="hardAlpha" operator="arithmetic" k2="-1" k3="1"/>
<feColorMatrix type="matrix" values="0 0 0 0 0.24 0 0 0 0 0.228 0 0 0 0 0.16 0 0 0 0.5 0"/>
<feBlend mode="normal" in2="shape" result="effect1_innerShadow_107_817"/>
</filter>
<filter id="filter1_i_107_817" x="1" y="-2.22128" width="69.5969" height="51.2213" filterUnits="userSpaceOnUse" color-interpolation-filters="sRGB">
<feFlood flood-opacity="0" result="BackgroundImageFix"/>
<feBlend mode="normal" in="SourceGraphic" in2="BackgroundImageFix" result="shape"/>
<feColorMatrix in="SourceAlpha" type="matrix" values="0 0 0 0 0 0 0 0 0 0 0 0 0 0 0 0 0 0 127 0" result="hardAlpha"/>
<feOffset dx="3.59759" dy="-2.22128"/>
<feGaussianBlur stdDeviation="1.79844"/>
<feComposite in2="hardAlpha" operator="arithmetic" k2="-1" k3="1"/>
<feColorMatrix type="matrix" values="0 0 0 0 0.48 0 0 0 0 0.456 0 0 0 0 0.32 0 0 0 0.14 0"/>
<feBlend mode="normal" in2="shape" result="effect1_innerShadow_107_817"/>
</filter>
<linearGradient id="paint0_linear_107_817" x1="-5.28571" y1="-9.86282e-07" x2="71.1418" y2="50.8067" gradientUnits="userSpaceOnUse">
<stop stop-color="#D6D3C2"/>
<stop offset="0.212761" stop-color="#B6B5AF"/>
<stop offset="0.548384" stop-color="#E2E0D4"/>
<stop offset="0.914316" stop-color="#9E9D94"/>
<stop offset="1" stop-color="#ADA785"/>
</linearGradient>
<linearGradient id="paint1_linear_107_817" x1="67.3771" y1="-7.7017e-07" x2="2.26237" y2="50.6237" gradientUnits="userSpaceOnUse">
<stop stop-color="#D6D3C2"/>
<stop offset="1" stop-color="#3D3A29" stop-opacity="0"/>
</linearGradient>
<linearGradient id="paint2_linear_107_817" x1="59" y1="7.1834" x2="4.87438" y2="41.5612" gradientUnits="userSpaceOnUse">
<stop stop-color="#BAB8AB"/>
<stop offset="1" stop-color="#A3A08F"/>
</linearGradient>
</defs>
</svg>
