<svg width="43" height="53" viewBox="0 0 43 53" fill="none" xmlns="http://www.w3.org/2000/svg">
<g id="Icon">
<g id="Vector" filter="url(#filter0_i_107_831)">
<path d="M0.553207 19.8735C0.332573 19.5814 0.172937 19.2497 0.0834121 18.8972C-0.00611238 18.5448 -0.0237718 18.1786 0.0314422 17.8195C0.142952 17.0942 0.544521 16.442 1.14781 16.0063C1.7511 15.5705 2.50669 15.387 3.24836 15.496C3.99003 15.6051 4.65702 15.9978 5.10261 16.5877C6.14759 17.959 6.9643 19.4833 7.52251 21.104C8.10283 22.7855 8.39713 24.5488 8.39367 26.3234C8.39562 28.0936 8.10134 29.8521 7.52251 31.5294C6.9643 33.1501 6.14759 34.6743 5.10261 36.0457C4.65702 36.6356 3.99003 37.0283 3.24836 37.1373C2.50669 37.2464 1.7511 37.0628 1.14781 36.6271C0.544521 36.1914 0.142952 35.5392 0.0314422 34.8139C-0.0800674 34.0886 0.107617 33.3498 0.553207 32.7599C1.24368 31.8613 1.78501 30.8619 2.15725 29.7986C2.55304 28.6805 2.75858 27.5066 2.76568 26.3234C2.77043 25.1471 2.57894 23.9779 2.19874 22.8618C1.81637 21.7864 1.26087 20.7776 0.553207 19.8735ZM10.2328 14.7217C12.4338 18.2077 13.593 22.2266 13.5792 26.3234C13.598 30.413 12.4486 34.4265 10.2604 37.9117C10.0652 38.2207 9.93417 38.5642 9.87473 38.9227C9.8153 39.2812 9.82866 39.6477 9.91405 40.0011C9.99944 40.3546 10.1552 40.6881 10.3724 40.9827C10.5896 41.2773 10.864 41.5272 11.18 41.7181C11.496 41.909 11.8473 42.0371 12.2139 42.0953C12.5805 42.1534 12.9553 42.1403 13.3167 42.0568C13.6782 41.9733 14.0193 41.821 14.3206 41.6086C14.6218 41.3962 14.8774 41.1279 15.0726 40.8189C17.8144 36.4615 19.2516 31.4395 19.221 26.3234C19.2535 21.2029 17.8162 16.1761 15.0726 11.8145C14.8774 11.5055 14.6218 11.2372 14.3206 11.0247C14.0193 10.8123 13.6782 10.66 13.3167 10.5765C12.9553 10.493 12.5805 10.48 12.2139 10.5381C11.8473 10.5962 11.496 10.7244 11.18 10.9153C10.864 11.1062 10.5896 11.356 10.3724 11.6506C10.1552 11.9452 9.99944 12.2788 9.91405 12.6322C9.82866 12.9857 9.8153 13.3521 9.87473 13.7107C9.93417 14.0692 10.0652 14.4127 10.2604 14.7217H10.2328ZM20.5346 9.51576C23.5901 14.6326 25.1984 20.4522 25.1947 26.3775C25.1966 32.2983 23.5883 38.1131 20.5346 43.2258C20.3467 43.5392 20.2237 43.8857 20.1727 44.2456C20.1217 44.6055 20.1437 44.9717 20.2375 45.3233C20.3312 45.6749 20.4948 46.0049 20.719 46.2947C20.9432 46.5844 21.2236 46.8281 21.5441 47.0119C21.8646 47.1957 22.219 47.3159 22.587 47.3658C22.955 47.4157 23.3295 47.3941 23.6891 47.3025C24.0486 47.2108 24.3861 47.0508 24.6824 46.8316C24.9787 46.6124 25.228 46.3382 25.4159 46.0248C28.9859 40.0714 30.8622 33.2925 30.8503 26.3911C30.8738 19.4643 29.0023 12.6575 25.4297 6.67617C25.0447 6.04141 24.4175 5.58223 23.6862 5.39965C22.9549 5.21707 22.1794 5.32604 21.5302 5.70259C20.8811 6.07915 20.4115 6.69244 20.2248 7.40754C20.0381 8.12265 20.1496 8.881 20.5346 9.51576ZM30.795 4.24223C34.725 10.9855 36.7843 18.6161 36.7687 26.3775C36.7825 34.1345 34.7233 41.7603 30.795 48.4993C30.6134 48.8145 30.4971 49.1616 30.4526 49.5207C30.4082 49.8799 30.4366 50.2441 30.5361 50.5925C30.6356 50.9409 30.8043 51.2668 31.0326 51.5515C31.2609 51.8361 31.5443 52.0741 31.8667 52.2516C32.189 52.4292 32.5439 52.5429 32.9112 52.5864C33.2785 52.6298 33.6509 52.6021 34.0072 52.5048C34.3636 52.4075 34.6968 52.2425 34.9879 52.0192C35.279 51.796 35.5223 51.5189 35.7039 51.2037C40.1171 43.6272 42.4334 35.0563 42.4243 26.337C42.4448 17.5948 40.1281 8.99928 35.7039 1.40264C35.3372 0.766086 34.7269 0.298065 34.0072 0.101538C33.2876 -0.09499 32.5176 -0.00392626 31.8667 0.354696C31.2157 0.713318 30.7371 1.31012 30.5361 2.01382C30.3351 2.71751 30.4282 3.47046 30.795 4.10701" fill="url(#paint0_linear_107_831)"/>
</g>
</g>
<defs>
<filter id="filter0_i_107_831" x="0" y="0" width="42.4244" height="52.6063" filterUnits="userSpaceOnUse" color-interpolation-filters="sRGB">
<feFlood flood-opacity="0" result="BackgroundImageFix"/>
<feBlend mode="normal" in="SourceGraphic" in2="BackgroundImageFix" result="shape"/>
<feColorMatrix in="SourceAlpha" type="matrix" values="0 0 0 0 0 0 0 0 0 0 0 0 0 0 0 0 0 0 127 0" result="hardAlpha"/>
<feOffset dx="-0.526063" dy="1.37455"/>
<feComposite in2="hardAlpha" operator="arithmetic" k2="-1" k3="1"/>
<feColorMatrix type="matrix" values="0 0 0 0 0.68 0 0 0 0 0.656 0 0 0 0 0.52 0 0 0 1 0"/>
<feBlend mode="normal" in2="shape" result="effect1_innerShadow_107_831"/>
</filter>
<linearGradient id="paint0_linear_107_831" x1="42.4245" y1="2.03927e-06" x2="2.42231e-07" y2="52.6063" gradientUnits="userSpaceOnUse">
<stop stop-color="#FBFBF9"/>
<stop offset="1" stop-color="#ADA785"/>
</linearGradient>
</defs>
</svg>
